<?xml version="1.0" encoding="utf-8"?>
<!-- Generator: Adobe Illustrator 18.0.0, SVG Export Plug-In . SVG Version: 6.00 Build 0)  -->
<!DOCTYPE svg PUBLIC "-//W3C//DTD SVG 1.1//EN" "http://www.w3.org/Graphics/SVG/1.1/DTD/svg11.dtd">
<svg version="1.1" id="Warstwa_1" xmlns="http://www.w3.org/2000/svg" xmlns:xlink="http://www.w3.org/1999/xlink" x="0px" y="0px"
	 viewBox="0 0 40 40" enable-background="new 0 0 40 40" xml:space="preserve">
<g>
	<g>
		<path fill-rule="evenodd" clip-rule="evenodd" fill="#547DBF" d="M0,0v40h40V0H0z M39,39H1V1h38V39z M14.3,21.8h3v9.9
			c0,0.2,0.1,0.3,0.3,0.3h4c0.2,0,0.3-0.1,0.3-0.3v-9.9h3c0.2,0,0.3-0.1,0.3-0.3l0.5-4c0-0.1,0-0.2-0.1-0.3
			c-0.1-0.1-0.1-0.1-0.2-0.1H22V15c0-1.1,0.2-1.6,1.6-1.6l2.1,0c0.2,0,0.3-0.1,0.3-0.3V9.5c0-0.2-0.1-0.3-0.3-0.3
			c-0.4-0.1-1.6-0.2-3-0.2c-3.3,0-5.3,2.1-5.3,5.6v2.6h-3c-0.2,0-0.3,0.1-0.3,0.3v4C14,21.7,14.1,21.8,14.3,21.8z"/>
	</g>
</g>
</svg>
