<?xml version="1.0" encoding="utf-8"?>
<!-- Generator: Adobe Illustrator 18.0.0, SVG Export Plug-In . SVG Version: 6.00 Build 0)  -->
<!DOCTYPE svg PUBLIC "-//W3C//DTD SVG 1.1//EN" "http://www.w3.org/Graphics/SVG/1.1/DTD/svg11.dtd">
<svg version="1.1" id="Warstwa_1" xmlns="http://www.w3.org/2000/svg" xmlns:xlink="http://www.w3.org/1999/xlink" x="0px" y="0px"
	 viewBox="0 0 12 22" enable-background="new 0 0 12 22" xml:space="preserve">
<path fill-rule="evenodd" clip-rule="evenodd" d="M12,3.9c0,0.2-0.1,0.3-0.3,0.3l-2.1,0C8.3,4.2,8,4.7,8,5.7v2.1h3.5
	c0.1,0,0.2,0,0.2,0.1c0.1,0.1,0.1,0.2,0.1,0.2L11.4,12c0,0.2-0.2,0.3-0.3,0.3H8v9.4C8,21.9,7.9,22,7.7,22h-4c-0.2,0-0.3-0.1-0.3-0.3
	v-9.4h-3c-0.2,0-0.3-0.1-0.3-0.3V8.1C0,8,0.2,7.8,0.3,7.8h3V5.3C3.4,2,5.4,0,8.7,0c1.4,0,2.7,0.1,3,0.2c0.2,0,0.3,0.2,0.3,0.3V3.9z"
	/>
</svg>
