<?xml version="1.0" encoding="utf-8"?>
<!-- Generator: Adobe Illustrator 18.0.0, SVG Export Plug-In . SVG Version: 6.00 Build 0)  -->
<!DOCTYPE svg PUBLIC "-//W3C//DTD SVG 1.1//EN" "http://www.w3.org/Graphics/SVG/1.1/DTD/svg11.dtd">
<svg version="1.1" id="Warstwa_1" xmlns="http://www.w3.org/2000/svg" xmlns:xlink="http://www.w3.org/1999/xlink" x="0px" y="0px"
	 viewBox="0 0 21 21" enable-background="new 0 0 21 21" xml:space="preserve">
<path fill-rule="evenodd" clip-rule="evenodd" d="M20.3,20.2c-1,1-2.5,1-3.5,0L12.5,16c-1.2,0.6-2.5,1-4,1C3.8,17.1,0,13.2,0,8.5
	C0,3.8,3.8,0,8.5,0S17,3.8,17,8.5c0,1.4-0.4,2.8-1,4l4.3,4.3C21.2,17.7,21.2,19.3,20.3,20.2z M8.5,2.6c-3.2,0-5.9,2.6-5.9,5.9
	c0,3.3,2.6,5.9,5.9,5.9s5.9-2.6,5.9-5.9C14.4,5.2,11.7,2.6,8.5,2.6z"/>
</svg>
