<?xml version="1.0" encoding="utf-8"?>
<!-- Generator: Adobe Illustrator 18.0.0, SVG Export Plug-In . SVG Version: 6.00 Build 0)  -->
<!DOCTYPE svg PUBLIC "-//W3C//DTD SVG 1.1//EN" "http://www.w3.org/Graphics/SVG/1.1/DTD/svg11.dtd">
<svg version="1.1" id="Warstwa_1" xmlns="http://www.w3.org/2000/svg" xmlns:xlink="http://www.w3.org/1999/xlink" x="0px" y="0px"
	 viewBox="0 0 40 40" enable-background="new 0 0 40 40" xml:space="preserve">
<g>
	<g>
		<path fill-rule="evenodd" clip-rule="evenodd" fill="#547DBF" d="M0,0v40h40V0H0z M39,39H1V1h38V39z M10.4,30.1
			c1.1,0.9,2.7,1.4,4.7,1.4h0c2.5,0,4.4-0.6,5.8-1.8c1.3-1.1,2-2.5,2-4c0-1.1-0.3-1.9-0.7-2.6c-0.5-0.6-1-1.2-1.7-1.7l-1-0.8
			c-0.1-0.1-0.3-0.3-0.4-0.5C19,20,19,19.9,19,19.7c0-0.2,0.1-0.4,0.2-0.6c0.1-0.2,0.3-0.4,0.4-0.5c0.3-0.3,0.6-0.5,0.9-0.8
			c0.3-0.3,0.5-0.6,0.7-0.9c0.5-0.7,0.7-1.6,0.7-2.7c0-0.6-0.1-1.1-0.2-1.6c-0.2-0.4-0.4-0.8-0.6-1.2c-0.2-0.3-0.4-0.5-0.6-0.8h0.8
			c0.1,0,0.1,0,0.2,0l1.8-1c0.1-0.1,0.2-0.2,0.2-0.4c0-0.2-0.2-0.3-0.3-0.3h-5.8c-0.8,0-1.6,0.1-2.5,0.3c-0.9,0.2-1.8,0.7-2.7,1.4
			c-1.3,1.2-1.9,2.6-1.9,4.1c0,1.3,0.5,2.4,1.3,3.3c0.9,1,2.1,1.6,3.8,1.6c0.1,0,0.3,0,0.4,0c-0.1,0.2-0.1,0.4-0.1,0.7
			c0,0.5,0.1,0.9,0.3,1.3c0.1,0.1,0.1,0.3,0.2,0.4c-0.6,0-1.2,0.1-1.9,0.2c-1.1,0.2-2.1,0.6-3.1,1.1c-0.9,0.5-1.5,1.2-1.9,1.9
			c-0.4,0.7-0.5,1.4-0.5,1.9C8.8,28.3,9.3,29.3,10.4,30.1z M15.3,17.6c-0.4-0.3-0.8-0.7-1-1.2c-0.6-1.1-0.9-2.1-0.9-3.1
			c0-0.7,0.2-1.3,0.6-1.9c0.4-0.5,1-0.8,1.7-0.8c0.5,0,1,0.2,1.3,0.4c0.4,0.3,0.7,0.7,1,1.2c0.6,1.1,0.8,2.2,0.8,3.3
			c0,0.2,0,0.6-0.1,0.9c-0.1,0.3-0.2,0.6-0.4,1c-0.4,0.4-1,0.7-1.6,0.7C16.2,18.1,15.7,17.9,15.3,17.6z M12.2,25.3
			c0.2-0.3,0.4-0.6,0.6-0.8c0.3-0.2,0.5-0.4,0.7-0.5c0.3-0.1,0.5-0.2,0.6-0.2c0.6-0.2,1.2-0.3,1.8-0.4c0.4,0,0.8-0.1,0.9-0.1
			c0,0,0.1,0,0.1,0c0,0,0,0,0,0c0.2,0,0.4,0,0.5,0c1,0.7,1.8,1.3,2.2,1.8c0.4,0.5,0.6,1,0.6,1.7c0,0.8-0.3,1.4-0.9,1.9
			c-0.6,0.5-1.6,0.8-2.9,0.8c-1.4,0-2.6-0.3-3.4-0.9c-0.8-0.6-1.2-1.3-1.2-2.2C11.9,26,12,25.6,12.2,25.3z M23.1,12.4v1.5
			c0,0.2,0.2,0.4,0.4,0.4h2.7v2.7c0,0.2,0.2,0.4,0.4,0.4h1.5c0.2,0,0.4-0.2,0.4-0.4v-2.7h2.7c0.2,0,0.4-0.2,0.4-0.4v-1.5
			c0-0.2-0.2-0.4-0.4-0.4h-2.7V9.4c0-0.2-0.2-0.4-0.4-0.4h-1.5c-0.2,0-0.4,0.2-0.4,0.4V12h-2.7C23.2,12,23.1,12.2,23.1,12.4z"/>
	</g>
</g>
</svg>
