<?xml version="1.0" encoding="utf-8"?>
<!-- Generator: Adobe Illustrator 18.0.0, SVG Export Plug-In . SVG Version: 6.00 Build 0)  -->
<!DOCTYPE svg PUBLIC "-//W3C//DTD SVG 1.1//EN" "http://www.w3.org/Graphics/SVG/1.1/DTD/svg11.dtd">
<svg version="1.1" id="Warstwa_1" xmlns="http://www.w3.org/2000/svg" xmlns:xlink="http://www.w3.org/1999/xlink" x="0px" y="0px"
	 viewBox="0 0 21 20" enable-background="new 0 0 21 20" xml:space="preserve">
<path fill-rule="evenodd" clip-rule="evenodd" d="M16.5,20v-7.2c0-1.8-0.7-3.1-2.3-3.1c-1.2,0-2,0.8-2.3,1.6
	c-0.1,0.3-0.1,0.7-0.1,1.1V20H7.3c0,0,0.1-12.2,0-13.5h4.5v1.9c0,0,0,0,0,0h0v0c0.6-0.9,1.7-2.2,4.1-2.2c3,0,5.2,1.9,5.2,6.1V20
	H16.5z M2.5,4.7L2.5,4.7C1,4.7,0,3.6,0,2.3C0,1,1,0,2.5,0C4.1,0,5,1,5.1,2.3C5.1,3.6,4.1,4.7,2.5,4.7z M4.8,20H0.3V6.5h4.5V20z"/>
</svg>
