<?xml version="1.0" encoding="utf-8"?>
<!-- Generator: Adobe Illustrator 18.0.0, SVG Export Plug-In . SVG Version: 6.00 Build 0)  -->
<!DOCTYPE svg PUBLIC "-//W3C//DTD SVG 1.1//EN" "http://www.w3.org/Graphics/SVG/1.1/DTD/svg11.dtd">
<svg version="1.1" id="Warstwa_1" xmlns="http://www.w3.org/2000/svg" xmlns:xlink="http://www.w3.org/1999/xlink" x="0px" y="0px"
	 viewBox="0 0 40 40" enable-background="new 0 0 40 40" xml:space="preserve">
<g>
	<g>
		<path fill-rule="evenodd" clip-rule="evenodd" fill="#547DBF" d="M0,0v40h40V0H0z M39,39H1V1h38V39z M11.2,27h4.1V14.8h-4.1V27z
			 M13.2,13.2L13.2,13.2c1.4,0,2.3-0.9,2.3-2.1c0-1.2-0.9-2.1-2.3-2.1C11.9,9,11,9.9,11,11.1C11,12.3,11.9,13.2,13.2,13.2z M21.6,27
			v-6.8c0-0.4,0-0.7,0.1-1c0.3-0.7,1-1.5,2.1-1.5c1.5,0,2.1,1.1,2.1,2.7V27H30v-7c0-3.7-2-5.5-4.7-5.5c-2.2,0-3.1,1.2-3.7,2v0h0
			c0,0,0,0,0,0v-1.7h-4.1c0.1,1.1,0,12.1,0,12.1H21.6z"/>
	</g>
</g>
</svg>
