<?xml version="1.0" encoding="utf-8"?>
<!-- Generator: Adobe Illustrator 18.0.0, SVG Export Plug-In . SVG Version: 6.00 Build 0)  -->
<!DOCTYPE svg PUBLIC "-//W3C//DTD SVG 1.1//EN" "http://www.w3.org/Graphics/SVG/1.1/DTD/svg11.dtd">
<svg version="1.1" id="Warstwa_1" xmlns="http://www.w3.org/2000/svg" xmlns:xlink="http://www.w3.org/1999/xlink" x="0px" y="0px"
	 viewBox="0 0 22 13" enable-background="new 0 0 22 13" xml:space="preserve">
<g>
	<path d="M21.5,0.4c-0.3-0.2-0.6-0.3-1-0.3h-19C0.7,0,0,0.6,0,1.4v10.1C0,12.4,0.7,13,1.5,13h19c0.8,0,1.5-0.6,1.5-1.4V1.4
		C22,1,21.8,0.6,21.5,0.4z M20.1,1.2L11,7.3L1.8,1.2H20.1z M20.8,11.6c0,0.1-0.1,0.2-0.3,0.2h-19c-0.1,0-0.3-0.1-0.3-0.2V1.5
		l9.6,6.4C10.9,8,10.9,8,11,8c0.1,0,0.1,0,0.2-0.1l9.6-6.5V11.6z"/>
</g>
</svg>
