<?xml version="1.0" encoding="utf-8"?>
<!-- Generator: Adobe Illustrator 18.0.0, SVG Export Plug-In . SVG Version: 6.00 Build 0)  -->
<!DOCTYPE svg PUBLIC "-//W3C//DTD SVG 1.1//EN" "http://www.w3.org/Graphics/SVG/1.1/DTD/svg11.dtd">
<svg version="1.1" id="Warstwa_1" xmlns="http://www.w3.org/2000/svg" xmlns:xlink="http://www.w3.org/1999/xlink" x="0px" y="0px"
	 viewBox="0 0 16 20" enable-background="new 0 0 16 20" xml:space="preserve">
<g>
	<path d="M15.9,17.5l-4-4c-0.1-0.1-0.2-0.2-0.4-0.2c-0.1,0-0.3,0.1-0.4,0.2c-0.1,0.1-1.2,0.2-1.2,0.2C9.8,14,9.7,14,9.6,14.2
		c-0.1,0.1-0.3,0-0.4-0.1L5.1,8C5,7.8,5,7.6,5.1,7.5c0.2-0.1,1.2-1.1,1.3-1.2c0.1,0,0.2-0.1,0.4-0.1c0.3-0.1,0.4-0.4,0.3-0.7L5,0.3
		C5,0.2,4.9,0.1,4.7,0C4.6,0,4.5,0,4.3,0C3.6,0.4,2,1.8,1.5,2.3C0.9,2.9,0.3,3.7,0,4.2c0,0.1,0,0.2,0,0.2c0.2,2.2,1.7,5.7,3.7,8.7
		c2,3,4.8,5.8,6.8,6.7c0.1,0,0.2,0.1,0.2,0.1c0,0,0,0,0,0c0.8,0,1.8-0.4,2.2-0.6c0.7-0.3,2.5-0.8,2.9-1.2c0.1-0.1,0.2-0.2,0.2-0.4
		C16,17.8,16,17.6,15.9,17.5z"/>
</g>
</svg>
