<?xml version="1.0" encoding="utf-8"?>
<!-- Generator: Adobe Illustrator 18.0.0, SVG Export Plug-In . SVG Version: 6.00 Build 0)  -->
<!DOCTYPE svg PUBLIC "-//W3C//DTD SVG 1.1//EN" "http://www.w3.org/Graphics/SVG/1.1/DTD/svg11.dtd">
<svg version="1.1" id="Warstwa_1" xmlns="http://www.w3.org/2000/svg" xmlns:xlink="http://www.w3.org/1999/xlink" x="0px" y="0px"
	 viewBox="0 0 40 40" enable-background="new 0 0 40 40" xml:space="preserve">
<path fill-rule="evenodd" clip-rule="evenodd" fill="#547DBF" d="M0,40V0h40v40H0z M39,1H1v38h38V1z M9.8,11h20.3c1,0,1.8,0.9,1.8,2
	v8c0,1.1,0,2-1,2h-2c0,0,0,5.6,0,7c0,0.7-2,2-3.2,2c-1.4,0-11,0-11.8,0c-1.1,0-3-1.3-3-2c0-0.7,0-3,0-3c0-0.4,0.6-1,1-1
	c0.4,0,1,0.6,1,1v2c0,0,0.2,1,2,1c4.8,0,4.2,0,10,0c1.8,0,2-1,2-1l0-9c0-1.1-1-2-2-2H15c-1,0-2.2,1.4-2.2,2.5v2.5h-3
	c-1,0-1.8-0.9-1.8-2v-8C8,11.9,8.8,11,9.8,11z M15.6,8c5.5,0,5.1,0,9.8,0C27,8.1,28,10,28,10H13C13,10,14,8.1,15.6,8z"/>
</svg>
