<?xml version="1.0" encoding="utf-8"?>
<!-- Generator: Adobe Illustrator 18.0.0, SVG Export Plug-In . SVG Version: 6.00 Build 0)  -->
<!DOCTYPE svg PUBLIC "-//W3C//DTD SVG 1.1//EN" "http://www.w3.org/Graphics/SVG/1.1/DTD/svg11.dtd">
<svg version="1.1" id="Warstwa_1" xmlns="http://www.w3.org/2000/svg" xmlns:xlink="http://www.w3.org/1999/xlink" x="0px" y="0px"
	 viewBox="0 0 40 40" enable-background="new 0 0 40 40" xml:space="preserve">
<g>
	<g>
		<path fill-rule="evenodd" clip-rule="evenodd" fill="#547DBF" d="M0,0v40h40V0H0z M39,39H1V1h38V39z M11.8,14.6
			c7.6,0,13.7,6.2,13.7,13.8c0,0.2,0.2,0.4,0.4,0.4h3.4c0.2,0,0.4-0.2,0.4-0.4c0-9.9-8-17.9-17.8-17.9c-0.2,0-0.4,0.2-0.4,0.4v3.4
			C11.4,14.4,11.6,14.6,11.8,14.6z M14.1,28.7c1.5,0,2.7-1.2,2.7-2.7c0-1.5-1.2-2.7-2.7-2.7c-1.5,0-2.7,1.2-2.7,2.7
			C11.4,27.5,12.6,28.7,14.1,28.7z M11.8,20.5c2.1,0,4,0.8,5.5,2.3c1.5,1.5,2.3,3.5,2.3,5.6c0,0.2,0.2,0.4,0.4,0.4h3.4
			c0.2,0,0.4-0.2,0.4-0.4c0-6.6-5.3-11.9-11.9-11.9c-0.2,0-0.4,0.2-0.4,0.4v3.4C11.4,20.4,11.6,20.5,11.8,20.5z"/>
	</g>
</g>
</svg>
