<?xml version="1.0" encoding="utf-8"?>
<!-- Generator: Adobe Illustrator 18.0.0, SVG Export Plug-In . SVG Version: 6.00 Build 0)  -->
<!DOCTYPE svg PUBLIC "-//W3C//DTD SVG 1.1//EN" "http://www.w3.org/Graphics/SVG/1.1/DTD/svg11.dtd">
<svg version="1.1" id="Warstwa_1" xmlns="http://www.w3.org/2000/svg" xmlns:xlink="http://www.w3.org/1999/xlink" x="0px" y="0px"
	 viewBox="0 0 40 40" enable-background="new 0 0 40 40" xml:space="preserve">
<g>
	<g>
		<path fill-rule="evenodd" clip-rule="evenodd" fill="#547DBF" d="M0,0v40h40V0H0z M39,39H1V1h38V39z M16.8,29.1
			c7.4,0,11.9-6,11.9-11.9c0-0.1,0-0.2,0-0.3c0.8-0.6,1.4-1.3,2-2.1c0.1-0.1,0.1-0.3,0-0.4s-0.3-0.2-0.4-0.1
			c-0.3,0.1-0.6,0.2-0.9,0.3c0.4-0.4,0.7-0.9,0.8-1.5c0-0.1,0-0.3-0.1-0.4c-0.1-0.1-0.3-0.1-0.4,0c-0.7,0.4-1.5,0.7-2.3,0.9
			c-0.8-0.8-1.9-1.2-3.1-1.2c-2.4,0-4.4,2-4.4,4.4c0,0.2,0,0.4,0,0.5c-3-0.3-5.7-1.7-7.6-4.1c-0.1-0.1-0.2-0.1-0.3-0.1
			c-0.1,0-0.2,0.1-0.3,0.2c-0.4,0.7-0.6,1.4-0.6,2.2c0,1,0.4,2,1,2.8c-0.2-0.1-0.3-0.1-0.5-0.2c-0.1-0.1-0.2-0.1-0.4,0
			c-0.1,0.1-0.2,0.2-0.2,0.3v0.1c0,1.5,0.8,2.9,2,3.7c-0.1,0-0.1,0-0.2,0c-0.1,0-0.3,0-0.3,0.1c-0.1,0.1-0.1,0.2-0.1,0.3
			c0.5,1.5,1.7,2.6,3.2,2.9c-1.2,0.7-2.6,1.1-4.1,1.1c-0.3,0-0.6,0-0.9-0.1c-0.2,0-0.3,0.1-0.4,0.2c-0.1,0.2,0,0.3,0.1,0.4
			C12.3,28.4,14.5,29.1,16.8,29.1z"/>
	</g>
</g>
</svg>
