<?xml version="1.0" encoding="utf-8"?>
<!-- Generator: Adobe Illustrator 18.0.0, SVG Export Plug-In . SVG Version: 6.00 Build 0)  -->
<!DOCTYPE svg PUBLIC "-//W3C//DTD SVG 1.1//EN" "http://www.w3.org/Graphics/SVG/1.1/DTD/svg11.dtd">
<svg version="1.1" id="Warstwa_1" xmlns="http://www.w3.org/2000/svg" xmlns:xlink="http://www.w3.org/1999/xlink" x="0px" y="0px"
	 viewBox="0 0 70 18" enable-background="new 0 0 70 18" xml:space="preserve">
<path fill-rule="evenodd" clip-rule="evenodd" fill="#FFFFFF" d="M0,0h70v18H0V0z M1,17h16v-3h1v3h16v-3h1v3h17v-3h1v3h16l0-16L53,1
	v3h-1V1H35v3h-1V1H18v3h-1V1H1V17z M6.8,8.7l5.2-5.1h1.5v0.7h-1.2L7.9,8.6l4.6,5h1.2v0.7h-1.8L6.8,8.7z M6.6,13.7h1.5v0.7H5.8v-0.7
	V4.3H4.3V3.6h3.8v0.7H6.6V13.7z M29.5,4.4c0.6,0.6,1,1.3,1,2.4c0,1-0.3,1.7-0.9,2.3C28.9,9.7,28,9.9,27,9.9h-2.5v3.7v0.7h-2.3v-0.7
	h1.4V4.3h-1.4V3.6h4.6C28,3.6,28.8,3.9,29.5,4.4z M24.5,4.3v4.9h2.1c0.9,0,1.6-0.2,2.1-0.6c0.5-0.4,0.7-1,0.7-1.8
	c0-0.9-0.2-1.6-0.7-2c-0.5-0.4-1.2-0.6-2.2-0.6H24.5z M47,13.2V3.6h2.1v0.7h-1.4v10.2h-0.8l-6.5-10v9.1h1.5v0.7h-2.3V4.3h-1.4V3.6
	h2.5L47,13.2z M64.2,4.4c0.6,0.6,1,1.3,1,2.4c0,1-0.3,1.7-0.9,2.3c-0.6,0.6-1.5,0.9-2.5,0.9h-2.5v3.7v0.7h-2.3v-0.7h1.4V4.3h-1.4
	V3.6h4.6C62.6,3.6,63.5,3.9,64.2,4.4z M59.2,4.3v4.9h2.1c0.9,0,1.6-0.2,2.1-0.6c0.5-0.4,0.7-1,0.7-1.8c0-0.9-0.2-1.6-0.7-2
	c-0.5-0.4-1.2-0.6-2.2-0.6H59.2z"/>
</svg>
