<?xml version="1.0" encoding="utf-8"?>
<!-- Generator: Adobe Illustrator 18.0.0, SVG Export Plug-In . SVG Version: 6.00 Build 0)  -->
<!DOCTYPE svg PUBLIC "-//W3C//DTD SVG 1.1//EN" "http://www.w3.org/Graphics/SVG/1.1/DTD/svg11.dtd">
<svg fill="#ffffff" version="1.1" id="Warstwa_1" xmlns="http://www.w3.org/2000/svg" xmlns:xlink="http://www.w3.org/1999/xlink" x="0px" y="0px"
	 viewBox="0 0 227 39" enable-background="new 0 0 227 39" xml:space="preserve">
<g>
	<path d="M163.1,7.2h2.1c1.9,0,2.6-0.8,2.6-2.2V3.6c0-1.4-0.7-2.2-2.6-2.2H162v8.9h1.2V7.2z M163.1,2.5h2c1.1,0,1.5,0.3,1.5,1.2v1.3
		c0,0.9-0.4,1.2-1.5,1.2h-2V2.5z M170.7,1.4h-1.2v8.9h1.2V1.4z M178.3,9.3h-4.1v-3h3.8v-1h-3.8V2.5h4.1v-1H173v8.9h5.3V9.3z
		 M183.1,10.5c0.7,0,1.6-0.1,2.3-0.2l-0.1-1c-0.7,0.1-1.6,0.2-2.1,0.2c-1.5,0-1.9-0.4-1.9-1.7V4c0-1.2,0.5-1.7,1.9-1.7
		c0.5,0,1.4,0.1,2.1,0.2l0.1-1c-0.6-0.1-1.6-0.2-2.3-0.2c-2.2,0-3.1,0.9-3.1,2.6v3.9C180.1,9.6,181,10.5,183.1,10.5z M193,9.4h-4.7
		l4.6-7v-1h-5.8v1h4.5l-4.6,7v1h6V9.4z M198.1,10.5c2.3,0,3.2-1.2,3.2-2.7V4c0-1.5-0.9-2.7-3.2-2.7c-2.3,0-3.2,1.2-3.2,2.7v3.8
		C194.8,9.3,195.7,10.5,198.1,10.5z M196,4c0-1.1,0.7-1.7,2.1-1.7c1.4,0,2.1,0.6,2.1,1.7v3.7c0,1.1-0.7,1.7-2.1,1.7
		c-1.4,0-2.1-0.6-2.1-1.7V4z M204.5,2.7l3.9,7.6h1.6V1.4h-1.1v7.7L205,1.4h-1.6v8.9h1.1V2.7z M212.3,10.4h1.2V1.4h-1.2V10.4z
		 M218.3,1.4h-1.4l-3.2,4.4l3.5,4.6h1.4L215,5.8L218.3,1.4z M224,1.4h-1.6l-3,8.9h1.2l0.7-2.1h3.8l0.7,2.1h1.2L224,1.4z M221.6,7.2
		l1.6-5l1.6,5H221.6z M167.4,22.8l-3.9-7.7H162v8.9h1.1v-7.6l3.9,7.6h1.6v-8.9h-1.1V22.8z M177.1,21.5v-3.8c0-1.5-0.9-2.7-3.2-2.7
		c-2.3,0-3.2,1.2-3.2,2.7v3.8c0,1.5,0.9,2.7,3.2,2.7C176.2,24.2,177.1,23,177.1,21.5z M171.8,21.5v-3.7c0-1.1,0.7-1.7,2.1-1.7
		c1.4,0,2.1,0.6,2.1,1.7v3.7c0,1.1-0.7,1.7-2.1,1.7C172.5,23.2,171.8,22.6,171.8,21.5z M190,15.1h-1.1l-2,7.8l-1.9-7.8h-1.6
		l-1.9,7.8l-2-7.8h-1.1l2.4,8.9h1.6l1.9-8l1.9,8h1.6L190,15.1z M191.8,24.1l0.7-2.1h3.8l0.7,2.1h1.2l-3-8.9h-1.6l-3,8.9H191.8z
		 M194.4,16l1.6,5h-3.2L194.4,16z M204.8,23c-0.7,0.1-1.6,0.2-2.1,0.2c-1.5,0-1.9-0.4-1.9-1.7v-3.8c0-1.2,0.5-1.7,1.9-1.7
		c0.5,0,1.4,0.1,2.1,0.2l0.1-1c-0.6-0.1-1.6-0.2-2.3-0.2c-2.2,0-3.1,0.9-3.1,2.6v3.9c0,1.7,0.9,2.6,3.1,2.6c0.7,0,1.6-0.1,2.3-0.2
		L204.8,23z M209.4,19.5l3.3-4.4h-1.4l-3.2,4.4l3.5,4.6h1.4L209.4,19.5z M207.9,24.1v-8.9h-1.2v8.9H207.9z M214.7,15.1v8.9h1.2v-8.9
		H214.7z M165.2,28.8H162v8.9h1.2v-3.2h2.1c1.9,0,2.6-0.8,2.6-2.2V31C167.8,29.7,167.1,28.8,165.2,28.8z M166.6,32.4
		c0,0.9-0.4,1.2-1.5,1.2h-2v-3.7h2c1.1,0,1.5,0.3,1.5,1.2V32.4z M169.5,37.8h1.2v-8.9h-1.2V37.8z M174.2,33.7h3.8v-1h-3.8v-2.8h4.1
		v-1H173v8.9h5.3v-1h-4.1V33.7z M179.4,29.9h2.7v7.9h1.2v-7.9h2.7v-1h-6.5V29.9z M193.3,32.3V31c0-1.4-0.7-2.2-2.6-2.2h-3.4v8.9h1.2
		v-3.2h2.2l2.2,3.2h1.3l-2.3-3.4C192.9,34.1,193.3,33.4,193.3,32.3z M190.7,33.5h-2.2v-3.7h2.2c1.1,0,1.5,0.3,1.5,1.2v1.3
		C192.2,33.2,191.8,33.5,190.7,33.5z M201.5,29.8v-1h-5.8v1h4.5l-4.6,7v1h6v-1h-4.7L201.5,29.8z M205.9,28.8l-3,8.9h1.2l0.7-2.1h3.8
		l0.7,2.1h1.2l-3-8.9H205.9z M205.1,34.6l1.6-5l1.6,5H205.1z M212,37.8h1.2v-8.9H212V37.8z M218,28.8h-1.4l-3.2,4.4l3.5,4.6h1.4
		l-3.5-4.6L218,28.8z M14.4,9.3h3.2V7.8H9.4v1.6h3.1v21.9h5.2v-1.6h-3.2V9.3z M17.2,18.7l9.5-9.4h2.5V7.8H26L14.7,18.9l11.1,12.3
		h3.9v-1.6h-2.5L17.2,18.7z M86.3,31.2h4.9v-1.6h-3.3V9.9L102,31.5h1.8V9.4h3V7.8h-4.7v20.8L88.6,7.8h-5.5v1.6h3.1V31.2z M0,39
		h152.2V0H0V39z M1.3,1.3h36.4v6.5H39V1.3h36.4v6.5h1.3V1.3h36.4v6.5h1.3V1.3h36.4v36.4h-36.4v-6.5h-1.3v6.5H76.8v-6.5h-1.3v6.5H39
		v-6.5h-1.3v6.5H1.3V1.3z M128.8,21.6h5.4c2.3,0,4.1-0.6,5.4-1.9c1.4-1.2,2-2.9,2-5c0-2.2-0.7-3.9-2.1-5.1c-1.4-1.2-3.3-1.8-5.7-1.8
		h-10v1.6h3.1v20.3h-3.1v1.6h5V21.6z M128.8,9.4h4.7c2.1,0,3.7,0.4,4.7,1.3c1,0.9,1.5,2.3,1.5,4.2c0,1.7-0.5,3-1.6,3.8
		c-1.1,0.9-2.6,1.3-4.6,1.3h-4.7V9.4z M53.4,21.6h5.4c2.3,0,4.1-0.6,5.4-1.9c1.4-1.2,2-2.9,2-5c0-2.2-0.7-3.9-2.1-5.1
		c-1.4-1.2-3.3-1.8-5.7-1.8h-10v1.6h3.1v20.3h-3.1v1.6h5V21.6z M53.4,9.4H58c2.1,0,3.7,0.4,4.7,1.3c1,0.9,1.5,2.3,1.5,4.2
		c0,1.7-0.5,3-1.6,3.8C61.6,19.6,60,20,58,20h-4.7V9.4z"/>
</g>
</svg>
